<?xml version="1.0" encoding="iso-8859-1"?><!-- Generator: Adobe Illustrator 19.1.1, SVG Export Plug-In . SVG Version: 6.00 Build 0)  --><svg xmlns="http://www.w3.org/2000/svg" xmlns:xlink="http://www.w3.org/1999/xlink" viewBox="0 0 16 16" width="64px" height="64px"><circle cx="8" cy="14" r="1"/><path style="fill:none;stroke:#000000;stroke-miterlimit:10;" d="M9.5,11.5v1c0,0.552-0.448,1-1,1h-1c-0.552,0-1-0.448-1-1v-1"/><path style="fill:none;stroke:#000000;stroke-miterlimit:10;" d="M11.5,6c0-1.933-1.567-3.5-3.5-3.5S4.5,4.067,4.5,6c0,2.5,2,2.5,2,5.5h3C9.5,8.5,11.5,8.5,11.5,6z"/><line style="fill:none;stroke:#000000;stroke-linecap:square;stroke-miterlimit:10;" x1="2.404" y1="11.096" x2="3.111" y2="10.389"/><line style="fill:none;stroke:#000000;stroke-linecap:square;stroke-miterlimit:10;" x1="12.889" y1="2.611" x2="13.596" y2="1.904"/><line style="fill:none;stroke:#000000;stroke-linecap:square;stroke-miterlimit:10;" x1="2.404" y1="1.904" x2="3.111" y2="2.611"/><line style="fill:none;stroke:#000000;stroke-linecap:square;stroke-miterlimit:10;" x1="12.889" y1="10.389" x2="13.596" y2="11.096"/><line style="fill:none;stroke:#000000;stroke-linecap:square;stroke-miterlimit:10;" x1="1.5" y1="6.5" x2="2.5" y2="6.5"/><line style="fill:none;stroke:#000000;stroke-linecap:square;stroke-miterlimit:10;" x1="13.5" y1="6.5" x2="14.5" y2="6.5"/></svg>