<?xml version="1.0" encoding="iso-8859-1"?><!-- Generator: Adobe Illustrator 19.1.1, SVG Export Plug-In . SVG Version: 6.00 Build 0)  --><svg xmlns="http://www.w3.org/2000/svg" xmlns:xlink="http://www.w3.org/1999/xlink" viewBox="0 0 16 16" width="64px" height="64px"><line style="fill:none;stroke:#000000;stroke-miterlimit:10;" x1="13" y1="3" x2="6.375" y2="9.625"/><path d="M11,8v4c0,0.552-0.448,1-1,1H4c-0.552,0-1-0.448-1-1V6c0-0.552,0.448-1,1-1h4l1-1H4C2.895,4,2,4.895,2,6v6c0,1.105,0.895,2,2,2h6c1.105,0,2-0.895,2-2V7L11,8z"/><polyline style="fill:none;stroke:#000000;stroke-miterlimit:10;" points="9,2.5 13.5,2.5 13.5,7 "/></svg>